<?xml version="1.0" encoding="utf-8"?>
<!-- Generator: Adobe Illustrator 24.1.2, SVG Export Plug-In . SVG Version: 6.00 Build 0)  -->
<svg version="1.1" id="Capa_1" xmlns="http://www.w3.org/2000/svg" xmlns:xlink="http://www.w3.org/1999/xlink" x="0px" y="0px"
	 viewBox="0 0 405.48 270.32" style="enable-background:new 0 0 405.48 270.32;" xml:space="preserve">
<style type="text/css">
	.st0{fill:#3DAE2B;}
</style>
<g>
	<path class="st0" d="M141.36,134.85c0.04-0.06,0.08-0.05,0.08-0.05L141.36,134.85z M32.18,94.64c0.11,34.33,27.95,62.22,62.24,62.3
		c23.07,0,38.14-12.19,45.1-19.48l0.51-0.49c0.34-0.4,0.61-0.87,0.93-1.46c0.09-0.11,0.17-0.29,0.32-0.49l0.03-0.11l0.04-0.05
		l0.55,0.24l-0.47-0.38c0.74-1.34,1.19-2.7,1.4-4.05c0.06-0.4,0.08-0.78,0.1-1.16c0.02-0.23,0.03-0.46,0.03-0.64
		c-0.13-3.68-2.01-7.06-5.01-9.04c-1.85-1.17-3.94-1.76-5.98-1.76c-2.55,0-5.09,0.89-7.07,2.57l-0.06,0.06
		c-0.21,0.24-0.38,0.43-0.62,0.68c-0.7,0.71-2.06,2.07-2.54,2.57c-7.46,6.93-17.14,10.73-27.27,10.73
		c-22.15-0.02-40.22-18.08-40.22-40.31c0-22.19,18.07-40.26,40.22-40.26c7.44,0.06,17.86,1.42,26.79,10.32l21.71-3.67
		c0,0-12.94-28.94-50.43-28.52C58.19,32.28,32.29,60.26,32.18,94.64 M255.38,37.04c-8.86,0-13.92,6.27-17.84,14.54l-24.85,52.92
		l-27.7-47.29l-31.29,4.4v93.25c0,5.82,4.91,10.57,10.77,10.58c5.78-0.01,10.69-4.76,10.69-10.58V83.19l38.03,63.67l36.92-75.16
		v84.51l21.48-3.02V53.32C271.59,44.45,264.19,37.06,255.38,37.04 M361.86,165.7c5.95-0.03,10.91-4.86,10.91-10.77
		c0-3.4-1.37-5.71-3.01-7.33l0.98-1.01l-0.98,1.01l-32.19-32.18l2.58-0.55c17.3-3.59,28.89-14.52,28.96-35.54
		c-0.04-24.49-20.48-38.03-40.98-38.1h-43.71V151.4l20.82-3V62.2h23.76c10.24,0.02,19.06,7.3,19.1,16.99
		c0.06,9.6-7.14,14.56-17.29,17.01c-10.35,2.69-14.99,9.91-15.05,17.73c0,4.92,1.93,10.12,5.8,14.47c3.76,4.65,5.89,6.56,5.96,6.66
		l28.4,28.91C357.58,165,359.55,165.7,361.86,165.7"/>
	<path class="st0" d="M130.9,231.53c0,1.33-0.52,2.27-1.59,2.78c-1.22,0.53-2.57,1.01-3.94,1.4c-1.47,0.38-2.94,0.71-4.43,0.92
		c-1.52,0.21-3.02,0.38-4.47,0.46c-1.5,0.09-2.92,0.12-4.25,0.12c-3.71,0-6.75-0.37-9.2-1.12c-2.42-0.78-4.36-1.75-5.77-3.03
		c-1.45-1.29-2.42-2.76-2.98-4.45c-0.54-1.71-0.87-3.53-0.87-5.38c0-2.02,0.39-3.87,1-5.7c0.65-1.83,1.7-3.45,3.15-4.8
		c1.53-1.37,3.33-2.48,5.65-3.3c2.36-0.87,5.18-1.3,8.5-1.3h9.4v-1.4c0-1.04-0.11-2.06-0.32-2.95c-0.22-0.9-0.64-1.69-1.28-2.36
		c-0.67-0.63-1.57-1.19-2.62-1.51c-1.17-0.38-2.6-0.59-4.4-0.59c-1.9,0-3.97,0.17-6.22,0.53c-2.24,0.29-3.99,0.7-5.44,1.16
		c-0.64,0.13-1.11,0.18-1.34,0.12c-0.27-0.13-0.41-0.44-0.57-0.98l-1.18-4.78c-0.24-0.89,0-1.47,0.76-1.75
		c2.33-0.84,4.9-1.5,7.69-1.88c2.81-0.36,5.42-0.53,7.89-0.53c5.83,0,10.08,1.29,12.79,3.84c2.71,2.56,4.05,6.33,4.05,11.27V231.53z
		 M121.01,215.66h-8.02c-0.99,0-2,0.04-3.05,0.13c-1.15,0.1-2.17,0.42-3.14,0.92c-0.97,0.56-1.8,1.24-2.43,2.21
		c-0.63,0.93-0.97,2.3-0.97,3.93c0,2.41,0.82,4.08,2.42,5.02c1.63,0.98,3.8,1.47,6.46,1.47c0.38,0,0.96-0.02,1.62-0.07
		c0.73-0.05,1.44-0.07,2.22-0.22c0.79-0.09,1.6-0.24,2.46-0.42c0.9-0.13,1.71-0.37,2.42-0.66V215.66z"/>
	<path class="st0" d="M193.46,231.53c0,1.33-0.53,2.27-1.59,2.78c-1.23,0.53-2.59,1.01-3.95,1.4c-1.45,0.38-2.91,0.71-4.41,0.92
		c-1.53,0.21-3.04,0.38-4.54,0.46c-1.44,0.09-2.86,0.12-4.15,0.12c-3.77,0-6.76-0.37-9.22-1.12c-2.44-0.78-4.39-1.75-5.8-3.03
		c-1.41-1.29-2.41-2.76-2.96-4.45c-0.59-1.71-0.9-3.53-0.9-5.38c0-2.02,0.38-3.87,1.04-5.7c0.64-1.83,1.66-3.45,3.11-4.8
		c1.49-1.37,3.34-2.48,5.65-3.3c2.35-0.87,5.18-1.3,8.5-1.3h9.4v-1.4c0-1.04-0.08-2.06-0.34-2.95c-0.23-0.9-0.65-1.69-1.28-2.36
		c-0.66-0.63-1.55-1.19-2.62-1.51c-1.16-0.38-2.58-0.59-4.38-0.59c-1.9,0-3.96,0.17-6.2,0.53c-2.24,0.29-4.03,0.7-5.42,1.16
		c-0.64,0.13-1.08,0.18-1.33,0.12c-0.3-0.13-0.47-0.44-0.61-0.98l-1.17-4.78c-0.27-0.89,0-1.47,0.71-1.75
		c2.4-0.84,4.95-1.5,7.74-1.88c2.8-0.36,5.41-0.53,7.86-0.53c5.83,0,10.1,1.29,12.79,3.84c2.76,2.56,4.08,6.33,4.08,11.27V231.53z
		 M183.58,215.66h-8.06c-0.97,0-1.98,0.04-3.08,0.13c-1.08,0.1-2.12,0.42-3.1,0.92c-0.94,0.56-1.75,1.24-2.41,2.21
		c-0.63,0.93-0.95,2.3-0.95,3.93c0,2.41,0.76,4.08,2.44,5.02c1.58,0.98,3.77,1.47,6.45,1.47c0.4,0,0.92-0.02,1.62-0.07
		c0.69-0.05,1.46-0.07,2.2-0.22c0.82-0.09,1.64-0.24,2.48-0.42c0.91-0.13,1.66-0.37,2.4-0.66V215.66z"/>
	<path class="st0" d="M261.81,191.23c6.42,0,11.22,1.65,14.32,4.94c3.07,3.31,4.6,7.81,4.6,13.61c0,1.45-0.14,2.64-0.49,3.61
		c-0.36,0.94-0.81,1.68-1.44,2.28c-0.59,0.53-1.3,0.94-2.1,1.12c-0.85,0.25-1.72,0.38-2.67,0.38h-22.28
		c0.04,2.21,0.35,4.01,0.99,5.52c0.61,1.47,1.44,2.67,2.51,3.59c1.05,0.91,2.28,1.59,3.67,1.98c1.4,0.39,2.94,0.58,4.53,0.58
		c1.8,0,3.59-0.21,5.29-0.65c1.73-0.44,3.24-1,4.53-1.62c0.89-0.39,1.51-0.22,1.85,0.5l2.29,4.77c0.34,0.89,0.16,1.54-0.59,1.96
		c-2.15,1.29-4.46,2.18-7.01,2.68c-2.49,0.49-4.91,0.73-7.24,0.73c-6.71,0-11.93-1.83-15.46-5.47c-3.54-3.61-5.38-9.37-5.38-17.28
		c0-3.7,0.53-6.99,1.52-9.85c0.97-2.9,2.37-5.33,4.1-7.29c1.82-2.03,3.93-3.54,6.36-4.52C256.2,191.75,258.94,191.23,261.81,191.23
		 M261.96,199.34c-1.49,0-2.84,0.3-4,0.89c-1.22,0.61-2.21,1.43-3.03,2.4c-0.8,1.01-1.53,2.15-2.03,3.42
		c-0.52,1.28-0.79,2.62-0.82,4.04h19.28c0-1.52-0.15-2.91-0.42-4.2c-0.32-1.27-0.74-2.39-1.47-3.38c-0.71-0.98-1.63-1.77-2.82-2.34
		C265.42,199.64,263.86,199.34,261.96,199.34"/>
	<path class="st0" d="M362.67,231.53c0,1.33-0.49,2.27-1.58,2.78c-1.22,0.53-2.5,1.01-3.95,1.4c-1.46,0.38-2.91,0.71-4.41,0.92
		c-1.53,0.21-3.05,0.38-4.49,0.46c-1.5,0.09-2.89,0.12-4.23,0.12c-3.67,0-6.75-0.37-9.18-1.12c-2.45-0.78-4.35-1.75-5.81-3.03
		c-1.38-1.29-2.37-2.76-2.94-4.45c-0.59-1.71-0.87-3.53-0.87-5.38c0-2.02,0.32-3.87,0.96-5.7c0.63-1.83,1.72-3.45,3.17-4.8
		c1.42-1.37,3.31-2.48,5.65-3.3c2.33-0.87,5.16-1.3,8.51-1.3h9.38v-1.4c0-1.04-0.08-2.06-0.35-2.95c-0.2-0.9-0.66-1.69-1.26-2.36
		c-0.67-0.63-1.54-1.19-2.65-1.51c-1.13-0.38-2.6-0.59-4.35-0.59c-1.89,0-3.98,0.17-6.25,0.53c-2.2,0.29-4.01,0.7-5.41,1.16
		c-0.61,0.13-1.06,0.18-1.34,0.12c-0.3-0.13-0.5-0.44-0.58-0.98l-1.19-4.78c-0.2-0.89,0-1.47,0.75-1.75
		c2.36-0.84,4.91-1.5,7.69-1.88c2.84-0.36,5.48-0.53,7.9-0.53c5.82,0,10.07,1.29,12.8,3.84c2.68,2.56,4.03,6.33,4.03,11.27V231.53z
		 M352.8,215.66h-8.06c-0.98,0-1.96,0.04-3.06,0.13c-1.12,0.1-2.11,0.42-3.11,0.92c-0.99,0.56-1.76,1.24-2.43,2.21
		c-0.62,0.93-0.93,2.3-0.93,3.93c0,2.41,0.8,4.08,2.38,5.02c1.62,0.98,3.83,1.47,6.48,1.47c0.41,0,0.94-0.02,1.66-0.07
		c0.67-0.05,1.42-0.07,2.19-0.22c0.82-0.09,1.63-0.24,2.52-0.42c0.85-0.13,1.65-0.37,2.38-0.66V215.66z"/>
	<path class="st0" d="M95.11,177.9c-0.15-0.34-0.66-0.45-1.4-0.45H70.06c-2.77,0-5.19,0.4-7.08,1.26c-1.9,0.8-3.42,1.95-4.58,3.37
		c-1.2,1.4-2.03,3.01-2.47,4.82c-0.48,1.79-0.71,3.67-0.71,5.69v41.9c0,0.73,0.15,1.26,0.49,1.47c0.32,0.2,0.83,0.32,1.44,0.32h2.65
		c1.83-0.13,5.61-1.05,5.61-6.51v-19.35h25.15c0.74,0,1.19-0.17,1.39-0.52c0.2-0.33,0.32-0.79,0.32-1.41v-4.79
		c0-0.81-0.13-1.27-0.32-1.49c-0.2-0.27-0.65-0.44-1.39-0.44H65.41v-9.8c0-1.76,0.43-3.16,1.35-4.08c0.82-0.92,2.35-1.39,4.43-1.39
		h22.52c0.67,0,1.18-0.17,1.39-0.43c0.25-0.27,0.37-0.78,0.37-1.51v-5.2C95.47,178.71,95.35,178.2,95.11,177.9"/>
	<path class="st0" d="M237.24,204.78c-0.77-2.8-1.92-5.19-3.44-7.19c-1.55-2.01-3.53-3.59-5.93-4.69c-2.47-1.15-5.34-1.67-8.68-1.67
		c-1.53,0-3.23,0.09-5.17,0.37c-1.93,0.25-3.72,0.62-5.33,1.12l-0.09-16.27c0-0.67-0.08-1.1-0.31-1.25
		c-0.24-0.2-0.64-0.25-1.28-0.25h-2.62c-1.86,0.15-5.42,1.08-5.49,6.32v50.92c0,0.48,0.05,0.89,0.25,1.24
		c0.16,0.29,0.51,0.56,1.01,0.74c2.47,1.17,5.25,1.94,8.23,2.35c2.99,0.51,5.92,0.71,8.79,0.71c3.66,0,6.85-0.58,9.58-1.73
		c2.64-1.17,4.84-2.82,6.6-4.93c1.74-2.1,3.01-4.55,3.82-7.44c0.79-2.86,1.2-5.97,1.2-9.31
		C238.36,210.55,237.98,207.54,237.24,204.78 M227.48,220.99c-0.57,1.86-1.36,3.38-2.35,4.58c-1.03,1.13-2.24,2.01-3.69,2.54
		c-1.45,0.56-3.04,0.78-4.79,0.78c-1.12,0-2.4-0.03-3.87-0.2c-1.44-0.13-2.79-0.42-4.19-0.87v-26.89c1.82-0.54,3.51-0.9,5.12-1.05
		c1.7-0.16,2.91-0.28,3.81-0.28c3.4,0,5.99,1.22,7.96,3.65c1.86,2.39,2.81,6.09,2.81,10.98
		C228.28,216.89,228.01,219.16,227.48,220.99"/>
	<path class="st0" d="M302.34,234.31l-0.58-4.75c-0.07-0.46-0.18-0.71-0.37-0.85c-0.2-0.17-0.52-0.21-1.01-0.14
		c-0.37,0.06-0.85,0.1-1.45,0.19c-0.53,0.06-1.09,0.06-1.52,0.06c-1.13,0-1.89-0.27-2.27-0.82c-0.39-0.5-0.59-1.52-0.59-2.95v-48.71
		c0-0.61-0.15-0.97-0.4-1.16c-0.25-0.2-0.69-0.25-1.27-0.25h-2.72c-1.84,0.15-5.31,1.08-5.53,6.08v46.37c0,3.63,0.76,6.19,2.19,7.62
		c1.48,1.49,3.74,2.2,6.89,2.2c1.11,0,2.36-0.09,3.79-0.2c1.42-0.17,2.72-0.42,3.82-0.9c0.58-0.3,0.9-0.52,1.02-0.74
		C302.44,235.22,302.44,234.84,302.34,234.31"/>
	<path class="st0" d="M323.8,234.31l-0.58-4.75c-0.06-0.46-0.14-0.71-0.35-0.85c-0.2-0.17-0.55-0.21-0.97-0.14
		c-0.42,0.06-0.87,0.1-1.49,0.19c-0.53,0.06-1.07,0.06-1.5,0.06c-1.13,0-1.89-0.27-2.29-0.82c-0.38-0.5-0.54-1.52-0.54-2.95v-48.71
		c0-0.61-0.17-0.97-0.42-1.16c-0.23-0.2-0.68-0.25-1.31-0.25h-2.65c-1.89,0.15-5.51,1.12-5.58,6.4v46.04c0,3.63,0.74,6.19,2.19,7.62
		c1.45,1.49,3.72,2.2,6.9,2.2c1.11,0,2.35-0.09,3.81-0.2c1.39-0.17,2.68-0.42,3.82-0.9c0.53-0.3,0.89-0.52,0.95-0.74
		C323.93,235.22,323.93,234.84,323.8,234.31"/>
	<path class="st0" d="M154.73,234.31l-0.56-4.75c-0.08-0.46-0.18-0.71-0.38-0.85c-0.18-0.17-0.52-0.21-0.95-0.14
		c-0.4,0.06-0.91,0.1-1.48,0.19c-0.64,0.06-1.12,0.06-1.56,0.06c-1.1,0-1.86-0.27-2.23-0.82c-0.43-0.5-0.65-1.52-0.65-2.95v-48.71
		c0-0.61-0.08-0.97-0.36-1.16c-0.26-0.2-0.64-0.25-1.26-0.25h-2.72c-1.86,0.15-5.5,1.12-5.52,6.5v45.95c0,3.63,0.73,6.19,2.14,7.62
		c1.48,1.49,3.78,2.2,6.93,2.2c1.11,0,2.36-0.09,3.83-0.2c1.39-0.17,2.68-0.42,3.79-0.9c0.54-0.3,0.87-0.52,0.97-0.74
		C154.83,235.22,154.83,234.84,154.73,234.31"/>
</g>
</svg>
