<?xml version="1.0" encoding="utf-8"?>
<!-- Generator: Adobe Illustrator 24.1.2, SVG Export Plug-In . SVG Version: 6.00 Build 0)  -->
<svg version="1.1" id="Capa_1" xmlns="http://www.w3.org/2000/svg" xmlns:xlink="http://www.w3.org/1999/xlink" x="0px" y="0px"
	 viewBox="0 0 370.5 132.5" style="enable-background:new 0 0 370.5 132.5;" xml:space="preserve">
<style type="text/css">
	.st0{fill:#007736;}
	.st1{fill:#BDD500;}
	.st2{fill:#004631;}
	.st3{fill:#565A5C;}
	.st4{fill:#A2A4A3;}
</style>
<g>
	<g>
		<g>
			<path class="st0" d="M79.36,114.68c-17.58,0-68.49-14.23-68.49-31.83c0-17.56,50.91-31.81,68.49-31.81
				c17.57,0,31.81,14.25,31.81,31.81C111.17,100.45,96.93,114.68,79.36,114.68"/>
			<path class="st1" d="M63.68,63.01c-11.45-6.94-38.95-36.34-32-47.77c6.94-11.44,45.71-0.6,57.15,6.37
				c11.43,6.92,15.09,21.83,8.13,33.27C90.02,66.32,75.12,69.96,63.68,63.01"/>
			<path class="st2" d="M54.01,55.32c3.66,3.38,7.06,6.14,9.66,7.7c11.11,6.76,25.4,3.5,32.65-7.09
				c-4.91-3.07-10.67-4.92-16.89-4.92C73.59,51.01,64.1,52.59,54.01,55.32"/>
			<path class="st3" d="M154.81,36.85c1.18,0.46,2.19,1.08,3.07,1.84c0.87,0.77,1.58,1.64,2.13,2.59c0.53,0.96,0.94,1.97,1.2,3.06
				c0.27,1.08,0.41,2.18,0.41,3.31c0,1.95-0.38,3.74-1.15,5.36c-0.78,1.62-1.81,3.02-3.12,4.19c-1.31,1.16-2.86,2.06-4.62,2.69
				c-1.77,0.62-3.67,0.93-5.71,0.93h-15.23c-1.33,0-2.25-0.28-2.75-0.84c-0.49-0.56-0.74-1.46-0.74-2.72V20.61
				c0-1.21,0.25-2.1,0.74-2.68c0.5-0.58,1.42-0.87,2.75-0.87L146.26,17c1.92,0,3.71,0.2,5.37,0.62c1.67,0.42,3.09,1.06,4.27,1.94
				c1.19,0.87,2.13,2,2.82,3.37c0.69,1.37,1.03,3.02,1.03,4.93c0,1.87-0.47,3.57-1.41,5.09c-0.93,1.52-2.11,2.67-3.53,3.46V36.85z
				 M135.91,34.04h10.11c0.58,0,1.22-0.08,1.9-0.23c0.69-0.14,1.32-0.41,1.9-0.8c0.58-0.41,1.07-0.94,1.44-1.63
				c0.37-0.68,0.56-1.59,0.56-2.71c0-1.5-0.49-2.69-1.47-3.56c-0.98-0.88-2.3-1.31-3.97-1.31h-10.48V34.04z M153.75,47.15
				c0-2-0.64-3.63-1.9-4.9c-1.27-1.26-3.13-1.9-5.59-1.9h-10.36v13.61h10.3c1.49,0,2.72-0.21,3.69-0.65
				c0.96-0.43,1.72-0.98,2.31-1.65c0.58-0.67,0.99-1.41,1.21-2.22C153.64,48.61,153.75,47.86,153.75,47.15"/>
			<path class="st3" d="M190.77,57.26c0,1-0.39,1.69-1.18,2.06c-0.92,0.43-1.91,0.78-2.97,1.07c-1.06,0.29-2.15,0.52-3.29,0.69
				c-1.12,0.16-2.23,0.28-3.34,0.34c-1.1,0.06-2.15,0.09-3.16,0.09c-2.74,0-5.03-0.28-6.83-0.84c-1.81-0.56-3.24-1.31-4.31-2.25
				c-1.06-0.94-1.79-2.04-2.21-3.31c-0.42-1.27-0.63-2.61-0.63-4.03c0-1.46,0.24-2.87,0.72-4.22c0.48-1.35,1.26-2.54,2.34-3.55
				c1.08-1.02,2.49-1.84,4.22-2.47c1.73-0.62,3.85-0.94,6.34-0.94h6.99v-1.06c0-0.8-0.08-1.52-0.25-2.19
				c-0.17-0.66-0.49-1.25-0.97-1.75c-0.47-0.51-1.13-0.89-1.97-1.16c-0.83-0.27-1.9-0.4-3.24-0.4c-1.42,0-2.95,0.12-4.63,0.37
				c-1.66,0.25-3.01,0.54-4.06,0.88c-0.45,0.13-0.79,0.15-1,0.06c-0.21-0.08-0.36-0.32-0.43-0.69l-0.88-3.56
				c-0.16-0.66,0.03-1.1,0.57-1.3c1.75-0.67,3.66-1.14,5.74-1.41c2.08-0.27,4.04-0.41,5.87-0.41c4.33,0,7.5,0.95,9.51,2.88
				c2.02,1.91,3.03,4.7,3.03,8.36V57.26z M183.41,45.47h-5.99c-0.72,0-1.47,0.03-2.28,0.13c-0.81,0.08-1.59,0.31-2.31,0.69
				c-0.73,0.37-1.34,0.91-1.82,1.62c-0.48,0.71-0.72,1.7-0.72,2.94c0,1.78,0.6,3.04,1.81,3.75c1.2,0.71,2.81,1.06,4.8,1.06
				c0.3,0,0.7,0,1.23-0.03c0.52-0.02,1.07-0.08,1.66-0.16c0.58-0.09,1.19-0.19,1.83-0.32c0.64-0.13,1.24-0.29,1.78-0.5V45.47z"/>
			<path class="st3" d="M207.32,33.54c-0.46,0-1.12,0.01-1.97,0.03c-0.86,0.02-1.84,0.13-2.96,0.34v25.85
				c0,0.45-0.08,0.74-0.25,0.87c-0.17,0.13-0.48,0.19-0.94,0.19h-4.87c-0.41,0-0.71-0.06-0.9-0.19c-0.2-0.12-0.29-0.41-0.29-0.87
				V33.04c0-1.5,0.27-2.67,0.82-3.5c0.53-0.84,1.65-1.39,3.36-1.68c0.42-0.03,0.97-0.1,1.67-0.19c0.71-0.08,1.46-0.15,2.25-0.19
				c0.79-0.03,1.55-0.08,2.3-0.12c0.75-0.04,1.39-0.06,1.94-0.06c2.72,0,5.11,0.29,7.13,0.87c2.01,0.58,3.68,1.51,4.98,2.77
				c1.31,1.28,2.27,2.92,2.9,4.96c0.62,2.04,0.93,4.5,0.93,7.37v16.49c0,0.45-0.08,0.74-0.24,0.87c-0.17,0.13-0.48,0.19-0.93,0.19
				h-4.9c-0.41,0-0.71-0.06-0.89-0.19c-0.19-0.12-0.29-0.41-0.29-0.87V43.16c0-1.63-0.14-3.05-0.4-4.25c-0.27-1.21-0.74-2.2-1.41-3
				c-0.67-0.78-1.57-1.38-2.72-1.78C210.51,33.74,209.07,33.54,207.32,33.54"/>
			<path class="st3" d="M242.16,55.14c1.33,0,2.66-0.16,4.01-0.5c1.32-0.33,2.43-0.71,3.3-1.12c0.46-0.21,0.78-0.27,0.96-0.19
				c0.19,0.09,0.35,0.29,0.46,0.63l1.57,3.62c0.42,0.67,0.3,1.19-0.38,1.56c-1.71,0.96-3.54,1.59-5.52,1.91
				c-1.98,0.31-3.82,0.47-5.53,0.47c-4.66,0-8.23-1.42-10.71-4.25c-2.48-2.82-3.71-7.02-3.71-12.61c0-2.62,0.35-5,1.06-7.14
				c0.71-2.15,1.72-3.97,3.03-5.49c1.31-1.52,2.9-2.69,4.74-3.5c1.85-0.81,3.94-1.22,6.27-1.22c1.7,0,3.36,0.18,4.96,0.53
				c1.61,0.35,3.11,0.9,4.53,1.66c0.39,0.21,0.6,0.41,0.69,0.63c0.08,0.2,0.02,0.51-0.19,0.93l-1.57,3.69
				c-0.16,0.33-0.34,0.53-0.52,0.62c-0.19,0.08-0.54,0.02-1.03-0.19c-1.01-0.37-2.05-0.69-3.13-0.96c-1.08-0.27-2.23-0.41-3.43-0.41
				c-1.42,0-2.64,0.3-3.65,0.91c-1.03,0.59-1.87,1.4-2.5,2.4c-0.64,1-1.11,2.15-1.41,3.46c-0.29,1.31-0.43,2.67-0.43,4.09
				c0,1.46,0.12,2.82,0.38,4.09c0.25,1.28,0.67,2.38,1.28,3.34c0.6,0.96,1.42,1.71,2.46,2.25
				C239.21,54.87,240.54,55.14,242.16,55.14"/>
			<path class="st3" d="M283.92,44.28c0,5.53-1.28,9.8-3.83,12.77c-2.56,2.97-6.38,4.47-11.46,4.47c-5.04,0-8.8-1.44-11.28-4.34
				c-2.47-2.89-3.71-7.13-3.71-12.71c0-2.75,0.38-5.19,1.12-7.3c0.75-2.12,1.79-3.91,3.12-5.37c1.34-1.45,2.93-2.56,4.78-3.33
				c1.84-0.77,3.9-1.16,6.15-1.16c4.95,0,8.71,1.51,11.27,4.52C282.64,34.85,283.92,39,283.92,44.28 M276.5,44.46
				c0-1.51-0.11-2.93-0.34-4.27c-0.23-1.34-0.63-2.53-1.19-3.55c-0.56-1.02-1.34-1.82-2.31-2.42c-0.98-0.58-2.22-0.87-3.71-0.87
				c-1.33,0-2.5,0.28-3.5,0.84c-1,0.57-1.84,1.33-2.5,2.29c-0.66,0.97-1.16,2.12-1.47,3.46c-0.3,1.34-0.46,2.78-0.46,4.33
				c0,3.47,0.56,6.21,1.68,8.19c1.13,1.99,3.13,2.99,6,2.99c1.46,0,2.69-0.3,3.69-0.91c1-0.6,1.8-1.41,2.4-2.42
				c0.61-1.01,1.04-2.16,1.32-3.48C276.36,47.32,276.5,45.94,276.5,44.46"/>
			<path class="st4" d="M185.14,111.12c0,1-0.39,1.69-1.2,2.07c-0.91,0.42-1.92,0.79-2.97,1.07c-1.09,0.29-2.18,0.52-3.32,0.69
				c-1.13,0.16-2.26,0.29-3.35,0.35c-1.13,0.06-2.19,0.09-3.2,0.09c-2.77,0-5.07-0.28-6.89-0.84c-1.84-0.57-3.28-1.33-4.36-2.27
				c-1.06-0.96-1.82-2.07-2.23-3.36c-0.41-1.27-0.63-2.62-0.63-4.04c0-1.51,0.25-2.89,0.73-4.27c0.48-1.35,1.26-2.57,2.36-3.59
				c1.12-1.02,2.51-1.85,4.25-2.48c1.76-0.64,3.88-0.96,6.37-0.96h7.08v-1.05c0-0.78-0.09-1.53-0.25-2.22
				c-0.18-0.65-0.5-1.24-0.98-1.76c-0.49-0.49-1.15-0.89-1.97-1.14c-0.87-0.29-1.94-0.43-3.3-0.43c-1.43,0-2.97,0.13-4.65,0.4
				c-1.69,0.22-3.03,0.51-4.11,0.86c-0.44,0.12-0.79,0.14-0.98,0.08c-0.2-0.08-0.34-0.33-0.44-0.72l-0.87-3.58
				c-0.18-0.68,0-1.11,0.55-1.32c1.74-0.64,3.68-1.14,5.79-1.43c2.1-0.26,4.06-0.4,5.92-0.4c4.36,0,7.56,0.97,9.6,2.9
				c2.03,1.93,3.05,4.75,3.05,8.45V111.12z M177.71,99.21h-6.05c-0.71,0-1.47,0.03-2.29,0.12c-0.85,0.08-1.6,0.31-2.34,0.69
				c-0.72,0.4-1.34,0.92-1.82,1.64c-0.47,0.72-0.71,1.71-0.71,2.95c0,1.82,0.62,3.07,1.82,3.8c1.21,0.72,2.84,1.08,4.85,1.08
				c0.28,0,0.7-0.03,1.22-0.05c0.52-0.02,1.09-0.07,1.67-0.16c0.59-0.08,1.2-0.18,1.85-0.31c0.66-0.13,1.27-0.28,1.8-0.51V99.21z"/>
			<path class="st4" d="M232.13,111.12c0,1-0.39,1.69-1.21,2.07c-0.9,0.42-1.92,0.79-2.97,1.07c-1.07,0.29-2.17,0.52-3.31,0.69
				c-1.14,0.16-2.25,0.29-3.36,0.35c-1.12,0.06-2.17,0.09-3.17,0.09c-2.79,0-5.07-0.28-6.89-0.84c-1.84-0.57-3.29-1.33-4.36-2.27
				c-1.06-0.96-1.82-2.07-2.23-3.36c-0.42-1.27-0.65-2.62-0.65-4.04c0-1.51,0.27-2.89,0.76-4.27c0.48-1.35,1.25-2.57,2.35-3.59
				c1.11-1.02,2.51-1.85,4.24-2.48c1.75-0.64,3.88-0.96,6.39-0.96h7.05v-1.05c0-0.78-0.07-1.53-0.25-2.22
				c-0.16-0.65-0.48-1.24-0.94-1.76c-0.5-0.49-1.17-0.89-2.01-1.14c-0.83-0.29-1.93-0.43-3.27-0.43c-1.43,0-2.98,0.13-4.66,0.4
				c-1.68,0.22-3.04,0.51-4.1,0.86c-0.45,0.12-0.79,0.14-0.99,0.08c-0.22-0.08-0.36-0.33-0.46-0.72l-0.88-3.58
				c-0.18-0.68,0.03-1.11,0.57-1.32c1.76-0.64,3.7-1.14,5.8-1.43c2.1-0.26,4.07-0.4,5.92-0.4c4.37,0,7.56,0.97,9.59,2.9
				c2.04,1.93,3.05,4.75,3.05,8.45V111.12z M224.71,99.21h-6.04c-0.72,0-1.49,0.03-2.31,0.12c-0.82,0.08-1.59,0.31-2.32,0.69
				c-0.74,0.4-1.35,0.92-1.83,1.64c-0.5,0.72-0.72,1.71-0.72,2.95c0,1.82,0.6,3.07,1.83,3.8c1.21,0.72,2.82,1.08,4.86,1.08
				c0.29,0,0.68-0.03,1.22-0.05c0.51-0.02,1.07-0.07,1.67-0.16c0.59-0.08,1.19-0.18,1.85-0.31c0.66-0.13,1.25-0.28,1.8-0.51V99.21z"
				/>
			<path class="st4" d="M283.46,80.88c4.82,0,8.41,1.26,10.73,3.71c2.33,2.49,3.49,5.88,3.49,10.21c0,1.09-0.13,1.99-0.38,2.72
				c-0.25,0.69-0.62,1.25-1.08,1.69c-0.45,0.42-0.99,0.73-1.59,0.87c-0.63,0.16-1.27,0.25-2,0.25h-16.73
				c0.04,1.66,0.27,3.02,0.74,4.14c0.46,1.11,1.1,2.01,1.88,2.7c0.81,0.69,1.72,1.19,2.77,1.47c1.06,0.3,2.21,0.45,3.42,0.45
				c1.33,0,2.67-0.17,3.97-0.5c1.28-0.33,2.43-0.73,3.38-1.2c0.66-0.27,1.13-0.18,1.4,0.38l1.7,3.57c0.28,0.69,0.13,1.16-0.44,1.47
				c-1.6,0.96-3.32,1.62-5.24,2.01c-1.88,0.39-3.68,0.57-5.41,0.57c-5.08,0-8.97-1.36-11.63-4.1c-2.7-2.71-4.04-7.04-4.04-12.96
				c0-2.78,0.38-5.24,1.14-7.4c0.74-2.18,1.79-4.01,3.09-5.49c1.35-1.49,2.92-2.63,4.77-3.38
				C279.26,81.27,281.29,80.88,283.46,80.88 M283.57,86.98c-1.12,0-2.12,0.22-3,0.66c-0.9,0.46-1.65,1.06-2.27,1.79
				c-0.63,0.79-1.15,1.63-1.53,2.59c-0.38,0.95-0.59,1.96-0.62,3.02h14.48c0-1.14-0.11-2.17-0.32-3.14c-0.2-0.96-0.56-1.8-1.09-2.54
				c-0.53-0.74-1.24-1.33-2.13-1.75C286.17,87.2,285.01,86.98,283.57,86.98"/>
			<path class="st4" d="M359.22,111.12c0,1-0.4,1.69-1.21,2.07c-0.91,0.42-1.88,0.79-2.96,1.07c-1.1,0.29-2.19,0.52-3.32,0.69
				c-1.14,0.16-2.28,0.29-3.36,0.35c-1.13,0.06-2.16,0.09-3.2,0.09c-2.76,0-5.04-0.28-6.89-0.84c-1.82-0.57-3.26-1.33-4.35-2.27
				c-1.05-0.96-1.8-2.07-2.24-3.36c-0.41-1.27-0.63-2.62-0.63-4.04c0-1.51,0.24-2.89,0.74-4.27c0.46-1.35,1.27-2.57,2.36-3.59
				c1.07-1.02,2.5-1.85,4.24-2.48c1.75-0.64,3.88-0.96,6.4-0.96h7.05v-1.05c0-0.78-0.07-1.53-0.26-2.22
				c-0.16-0.65-0.5-1.24-0.97-1.76c-0.5-0.49-1.15-0.89-1.99-1.14c-0.84-0.29-1.94-0.43-3.28-0.43c-1.42,0-2.99,0.13-4.67,0.4
				c-1.66,0.22-3.01,0.51-4.07,0.86c-0.47,0.12-0.81,0.14-1.01,0.08c-0.22-0.08-0.37-0.33-0.44-0.72l-0.89-3.58
				c-0.17-0.68,0.01-1.11,0.58-1.32c1.75-0.64,3.68-1.14,5.76-1.43c2.12-0.26,4.09-0.4,5.93-0.4c4.38,0,7.57,0.97,9.61,2.9
				c2.02,1.93,3.04,4.75,3.04,8.45V111.12z M351.79,99.21h-6.06c-0.7,0-1.46,0.03-2.28,0.12c-0.82,0.08-1.59,0.31-2.35,0.69
				c-0.73,0.4-1.32,0.92-1.82,1.64c-0.46,0.72-0.72,1.71-0.72,2.95c0,1.82,0.62,3.07,1.82,3.8c1.22,0.72,2.84,1.08,4.85,1.08
				c0.32,0,0.71-0.03,1.23-0.05c0.54-0.02,1.09-0.07,1.67-0.16c0.6-0.08,1.22-0.18,1.87-0.31c0.65-0.13,1.25-0.28,1.79-0.51V99.21z"
				/>
			<path class="st4" d="M158.27,70.91c-0.14-0.25-0.51-0.34-1.09-0.34h-17.7c-2.12,0-3.92,0.3-5.34,0.94
				c-1.44,0.62-2.6,1.45-3.46,2.5c-0.9,1.07-1.52,2.26-1.87,3.64c-0.35,1.35-0.54,2.76-0.54,4.26v31.47c0,0.54,0.12,0.9,0.38,1.05
				c0.25,0.17,0.61,0.26,1.09,0.26h1.98c1.37-0.09,4.23-0.78,4.23-4.89V95.3h18.88c0.58,0,0.92-0.12,1.05-0.38
				c0.17-0.25,0.24-0.6,0.24-1.07v-3.57c0-0.61-0.07-0.98-0.24-1.16c-0.13-0.19-0.47-0.32-1.05-0.32h-18.88v-7.34
				c0-1.34,0.32-2.37,1-3.06c0.62-0.7,1.76-1.04,3.34-1.04h16.87c0.53,0,0.9-0.11,1.06-0.34c0.18-0.18,0.27-0.57,0.27-1.13v-3.88
				C158.53,71.51,158.43,71.14,158.27,70.91"/>
			<path class="st4" d="M264.99,91.06c-0.57-2.1-1.42-3.88-2.58-5.39c-1.16-1.51-2.64-2.69-4.47-3.51c-1.83-0.88-3.98-1.28-6.5-1.28
				c-1.14,0-2.43,0.09-3.88,0.28c-1.46,0.2-2.79,0.49-4.01,0.85l-0.05-12.2c0-0.51-0.08-0.82-0.24-0.95
				c-0.16-0.14-0.48-0.19-0.95-0.19h-1.97c-1.39,0.11-4.06,0.83-4.13,4.74v38.2c0,0.37,0.06,0.66,0.19,0.92
				c0.12,0.22,0.39,0.41,0.74,0.56c1.89,0.88,3.95,1.45,6.2,1.76c2.26,0.36,4.45,0.52,6.6,0.52c2.75,0,5.16-0.44,7.19-1.31
				c1.98-0.89,3.64-2.11,4.95-3.7c1.29-1.58,2.26-3.42,2.86-5.58c0.62-2.14,0.91-4.46,0.91-6.98
				C265.84,95.39,265.56,93.13,264.99,91.06 M257.67,103.22c-0.42,1.38-1.02,2.54-1.76,3.42c-0.78,0.88-1.69,1.51-2.76,1.91
				c-1.07,0.4-2.29,0.59-3.59,0.59c-0.84,0-1.81-0.03-2.92-0.15c-1.08-0.1-2.12-0.31-3.15-0.66V88.18c1.34-0.42,2.62-0.69,3.85-0.8
				c1.24-0.14,2.18-0.21,2.85-0.21c2.54,0,4.51,0.9,5.95,2.73c1.42,1.79,2.14,4.54,2.14,8.24
				C258.29,100.16,258.08,101.85,257.67,103.22"/>
			<path class="st4" d="M313.89,113.19l-0.44-3.53c-0.05-0.35-0.13-0.55-0.28-0.67c-0.15-0.1-0.39-0.12-0.73-0.09
				c-0.28,0.04-0.66,0.07-1.1,0.13c-0.44,0.05-0.85,0.06-1.16,0.06c-0.83,0-1.42-0.19-1.7-0.6c-0.29-0.39-0.42-1.14-0.42-2.24V69.75
				c0-0.47-0.1-0.76-0.31-0.89c-0.18-0.14-0.52-0.19-0.96-0.19h-2.03c-1.38,0.11-4.01,0.83-4.17,4.58v34.77
				c0,2.73,0.56,4.63,1.66,5.73c1.09,1.11,2.8,1.64,5.17,1.64c0.83,0,1.77-0.05,2.85-0.15c1.08-0.13,2.04-0.32,2.87-0.67
				c0.43-0.2,0.68-0.39,0.75-0.53C313.97,113.88,313.97,113.61,313.89,113.19"/>
			<path class="st4" d="M330.03,113.19l-0.44-3.53c-0.05-0.35-0.13-0.55-0.28-0.67c-0.13-0.1-0.4-0.12-0.73-0.09
				c-0.3,0.04-0.67,0.07-1.1,0.13c-0.44,0.05-0.84,0.06-1.16,0.06c-0.84,0-1.41-0.19-1.71-0.6c-0.29-0.39-0.42-1.14-0.42-2.24V69.75
				c0-0.47-0.11-0.76-0.29-0.89c-0.17-0.14-0.52-0.19-0.99-0.19h-2.01c-1.4,0.11-4.11,0.85-4.16,4.81v34.53
				c0,2.73,0.56,4.63,1.64,5.73c1.09,1.11,2.82,1.64,5.17,1.64c0.84,0,1.78-0.05,2.88-0.15c1.06-0.13,2.01-0.32,2.87-0.67
				c0.41-0.2,0.65-0.39,0.74-0.53C330.12,113.88,330.12,113.61,330.03,113.19"/>
			<path class="st4" d="M203.06,113.19l-0.44-3.53c-0.05-0.35-0.14-0.55-0.27-0.67c-0.16-0.1-0.4-0.12-0.75-0.09
				c-0.29,0.04-0.66,0.07-1.11,0.13c-0.45,0.05-0.84,0.06-1.16,0.06c-0.82,0-1.4-0.19-1.69-0.6c-0.31-0.39-0.46-1.14-0.46-2.24
				V69.75c0-0.47-0.07-0.76-0.26-0.89c-0.21-0.14-0.5-0.19-0.97-0.19h-2.03c-1.4,0.11-4.13,0.85-4.13,4.86v34.48
				c0,2.73,0.54,4.63,1.63,5.73c1.09,1.11,2.81,1.64,5.17,1.64c0.82,0,1.78-0.05,2.87-0.15c1.04-0.13,2.01-0.32,2.85-0.67
				c0.42-0.2,0.67-0.39,0.76-0.53C203.13,113.88,203.13,113.61,203.06,113.19"/>
		</g>
	</g>
</g>
</svg>
